# xmcd
#
# Track frame offsets:
#	150
#	14664
#	37205
#	60156
#	85236
#	99149
#	113249
#	131389
#	149738
#	167516
#	185102
#
# Disc length: 3612 seconds
#
# Revision: 1
# Processed by: cddbd v1.5PL3 Copyright (c) Steve Scherf et al.
# Submitted via: EasyCDDAExtractor 7.0.5.1
#
DISCID=940e1a0b
DTITLE=Magee Payne - Giving Up The Ghost
DYEAR=2004
DGENRE=Folk-Rock
TTITLE0=A Way Away From You
TTITLE1=Midnight Ride
TTITLE2=Every Sip I Take
TTITLE3=Whiskey For Your Friend
TTITLE4=Drift Off To Dream
TTITLE5=Never Gonna Breathe
TTITLE6=Say Hello
TTITLE7=Be Your Man
TTITLE8=Bottom Of The Glass
TTITLE9=She
TTITLE10=Return Of The Grievous Angel
EXTD=planetary
EXTT0=
EXTT1=
EXTT2=
EXTT3=
EXTT4=
EXTT5=
EXTT6=
EXTT7=
EXTT8=
EXTT9=
EXTT10=
PLAYORDER=
